<?xml version="1.0" standalone="no"?>
<!DOCTYPE svg PUBLIC "-//W3C//DTD SVG 20010904//EN"
 "http://www.w3.org/TR/2001/REC-SVG-20010904/DTD/svg10.dtd">
<svg version="1.0" xmlns="http://www.w3.org/2000/svg"
 width="622.000000pt" height="622.000000pt" viewBox="0 0 622.000000 622.000000"
 preserveAspectRatio="xMidYMid meet">
<metadata>
Created by potrace 1.14, written by Peter Selinger 2001-2017
</metadata>
<g transform="translate(0.000000,622.000000) scale(0.100000,-0.100000)"
fill="#000000" stroke="none">
<path d="M2442 6010 c-111 -16 -129 -22 -175 -53 -29 -20 -82 -47 -120 -61
-78 -30 -178 -84 -190 -103 -4 -7 -13 -13 -19 -13 -6 0 -21 -10 -33 -22 -12
-13 -40 -38 -63 -56 -23 -19 -42 -40 -42 -47 0 -30 -46 -114 -86 -155 -24 -24
-51 -59 -61 -77 -10 -18 -21 -33 -24 -33 -8 0 -83 -143 -94 -180 -13 -42 -138
-221 -165 -236 -36 -19 -12 -17 55 6 70 24 66 24 58 3 -9 -23 -29 -43 -43 -43
-6 0 -5 -11 5 -30 13 -26 14 -39 3 -90 -10 -53 -15 -60 -40 -65 -30 -7 -36
-19 -16 -31 6 -4 14 -2 16 4 2 7 9 12 15 12 6 0 4 -7 -5 -16 -12 -12 -20 -14
-36 -5 -25 13 -32 14 -32 2 0 -5 9 -13 20 -16 11 -3 20 -11 20 -17 0 -5 -9
-12 -20 -15 -21 -6 -28 -33 -9 -33 6 0 9 -7 5 -15 -3 -8 0 -15 6 -15 7 0 -10
-20 -38 -45 -35 -31 -44 -44 -31 -45 10 0 27 9 39 20 27 25 46 26 44 3 -1 -24
-45 -65 -62 -59 -8 3 -11 0 -8 -8 3 -8 -4 -16 -15 -19 -11 -3 -26 -17 -33 -32
-11 -24 -10 -29 7 -41 18 -14 18 -14 -1 -14 -16 0 -17 -2 -4 -10 12 -8 12 -12
3 -18 -7 -4 -14 -26 -15 -47 -2 -24 -10 -45 -21 -53 -14 -11 -16 -17 -6 -28
18 -22 -4 -39 -45 -36 -43 4 -53 -11 -21 -28 32 -17 32 -33 0 -58 -14 -11 -25
-24 -25 -30 0 -5 -7 -15 -15 -22 -22 -18 -18 -30 10 -30 14 0 25 6 25 13 0 21
35 48 54 41 9 -3 16 -9 16 -11 0 -11 -49 -51 -54 -45 -3 3 -6 -5 -6 -17 0 -15
-5 -21 -17 -19 -9 2 -22 -7 -28 -18 -6 -12 -17 -29 -24 -37 -10 -13 -9 -18 10
-27 14 -8 24 -9 28 -2 4 6 10 5 18 -3 18 -20 -17 -48 -51 -39 -16 4 -26 2 -26
-5 0 -6 12 -11 26 -11 19 0 25 -4 22 -17 -2 -11 -12 -18 -25 -17 -12 0 -20 -3
-17 -8 3 -4 1 -8 -5 -8 -5 0 -13 5 -16 10 -3 6 -14 10 -23 10 -9 -1 1 -11 23
-22 22 -12 47 -21 57 -19 9 1 19 -2 22 -8 8 -13 -31 -25 -68 -22 -18 2 -26 -1
-22 -8 4 -6 19 -11 34 -11 15 0 34 -5 42 -10 13 -8 12 -10 -2 -10 -10 0 -18
-4 -18 -10 0 -5 5 -10 12 -10 6 0 8 -3 4 -7 -4 -5 -13 0 -21 10 -14 20 -45 13
-45 -10 0 -9 12 -27 26 -40 28 -26 28 -58 -2 -88 -13 -12 -14 -19 -4 -30 10
-13 7 -16 -19 -21 -24 -5 -29 -10 -21 -19 8 -9 8 -15 1 -20 -6 -3 -10 -17 -9
-30 3 -30 28 -43 28 -15 0 11 7 20 15 20 8 0 15 -7 15 -15 0 -8 -5 -15 -12
-15 -9 0 -9 -3 0 -12 6 -6 25 -11 43 -10 53 1 18 -19 -39 -22 -28 -2 -56 -7
-61 -11 -18 -11 -2 -25 28 -25 15 0 36 -9 46 -20 10 -11 13 -20 7 -20 -7 0
-12 -4 -12 -10 0 -5 14 -10 30 -10 17 0 30 -4 30 -9 0 -10 -75 -25 -105 -21
-11 1 -17 -1 -14 -4 8 -8 47 -14 104 -16 49 -2 49 -2 17 -11 -18 -6 -36 -17
-39 -25 -3 -8 -13 -12 -23 -9 -9 3 -28 1 -41 -4 -16 -7 -19 -10 -7 -10 22 -1
33 -20 19 -34 -6 -6 -11 -15 -11 -21 0 -5 6 -2 13 8 7 10 32 20 56 23 l44 6
-5 -57 c-6 -70 -22 -92 -38 -50 -9 23 -8 31 5 40 14 11 15 16 4 36 -12 22 -13
22 -23 -19 -6 -23 -14 -45 -18 -49 -14 -13 -9 -34 10 -41 22 -9 47 -33 33 -33
-5 0 -13 -9 -16 -20 -9 -29 -28 -25 -21 5 5 18 2 25 -9 25 -9 0 -15 -9 -15
-25 0 -27 4 -30 58 -39 30 -5 33 -4 27 14 -4 11 -2 20 4 20 6 0 11 -6 11 -14
0 -16 37 -28 46 -15 8 14 34 11 28 -3 -10 -24 -74 -58 -99 -52 -12 3 -26 1
-29 -5 -4 -6 13 -13 41 -17 36 -5 43 -9 28 -14 -11 -4 -26 -5 -34 -2 -8 3 -12
0 -9 -8 7 -21 57 -29 97 -16 15 5 21 5 17 -2 -3 -6 -25 -13 -49 -17 -68 -11
-82 -16 -66 -26 17 -10 102 1 111 15 5 8 10 8 18 0 14 -14 -30 -48 -75 -58
-35 -8 -83 -42 -73 -52 4 -4 14 -1 23 6 12 10 16 9 21 -4 3 -9 4 -25 1 -36
-10 -38 13 -31 30 10 20 45 28 50 36 20 7 -28 -11 -88 -29 -98 -17 -10 -16
-43 2 -49 6 -2 17 10 24 27 12 29 14 30 29 15 14 -14 14 -17 1 -25 -12 -8 -12
-10 3 -16 9 -3 24 -3 33 0 10 4 14 1 11 -6 -2 -7 -13 -12 -23 -11 -10 1 -26 0
-34 -3 -11 -5 -9 -8 9 -15 16 -6 28 -6 37 2 8 6 21 9 29 5 14 -5 14 -8 -1 -31
-17 -26 -72 -38 -58 -12 5 9 3 9 -7 -1 -12 -11 -12 -14 1 -22 8 -5 24 -10 35
-10 18 0 18 -1 -3 -16 -12 -8 -20 -20 -17 -25 8 -12 52 -12 60 1 7 12 25 13
25 3 0 -11 -50 -33 -72 -33 -10 0 -18 -4 -18 -10 0 -6 21 -8 53 -5 28 2 46 2
40 -1 -7 -3 -13 -13 -13 -21 0 -13 -3 -13 -15 -3 -18 15 -45 6 -45 -15 0 -8
-5 -15 -10 -15 -6 0 -19 -8 -30 -18 -19 -17 -19 -18 0 -18 11 0 20 4 20 8 0 4
5 8 10 8 6 0 10 -11 10 -24 0 -25 20 -48 20 -24 0 7 7 22 15 32 20 26 46 6 29
-22 -15 -24 -7 -47 12 -31 8 6 14 17 14 23 0 17 24 66 32 66 9 0 7 -69 -3 -76
-5 -3 -9 -10 -9 -15 0 -6 5 -7 10 -4 5 3 10 2 10 -4 0 -17 -22 -24 -31 -10 -6
10 -9 11 -9 2 0 -7 -11 -13 -25 -13 -22 0 -25 -4 -25 -40 0 -30 4 -40 16 -40
8 0 13 4 9 9 -3 5 0 22 7 36 11 24 13 25 19 8 3 -10 2 -26 -3 -37 -9 -17 -6
-18 56 -14 36 2 66 0 66 -4 0 -4 -6 -8 -13 -8 -7 0 -20 -9 -30 -20 -9 -11 -28
-20 -41 -20 -33 0 -42 -16 -16 -30 24 -13 16 -34 -11 -27 -10 3 -22 1 -25 -5
-7 -11 68 -5 100 8 13 5 17 3 14 -6 -5 -16 -23 -26 -63 -36 -27 -7 -28 -8 -7
-12 13 -2 43 3 68 12 24 8 44 11 44 7 0 -11 -45 -51 -57 -51 -6 0 -14 -7 -17
-16 -8 -22 -8 -24 7 -24 8 0 22 -9 32 -20 15 -16 15 -21 3 -25 -8 -3 -15 -22
-17 -46 -2 -38 -1 -40 20 -29 17 10 23 9 30 -1 11 -18 2 -29 -26 -29 -33 0
-22 -38 14 -46 14 -3 31 -7 37 -9 6 -2 16 1 22 7 6 6 18 8 27 5 23 -9 -3 -49
-27 -41 -9 3 -27 0 -39 -7 -21 -11 -22 -12 -5 -25 10 -7 15 -17 12 -23 -12
-18 53 -24 79 -7 14 9 25 12 25 6 0 -6 -7 -13 -15 -16 -8 -4 -15 -12 -15 -20
0 -11 6 -11 28 -3 l27 10 -24 -22 c-23 -22 -32 -19 -44 15 -2 5 -9 6 -16 2 -9
-6 -8 -11 5 -21 10 -7 15 -19 11 -29 -9 -22 -7 -32 5 -28 5 1 7 -6 4 -16 -8
-25 3 -52 21 -52 8 0 11 4 8 10 -11 17 9 40 25 30 11 -8 12 -12 3 -18 -18 -12
-10 -63 12 -76 10 -6 25 -16 32 -23 7 -6 18 -13 25 -16 10 -3 10 -7 2 -17 -9
-9 -8 -16 3 -29 7 -9 22 -27 33 -41 22 -31 39 -20 18 12 -8 13 -23 48 -33 78
-10 30 -26 66 -37 79 -10 13 -16 31 -13 40 4 14 -1 40 -29 151 -19 76 -30 106
-40 113 -8 5 -8 9 0 15 8 5 7 36 -6 112 -32 184 -38 213 -65 310 -14 52 -33
126 -41 164 -8 38 -17 73 -19 77 -3 4 -11 38 -19 75 -12 55 -12 92 -5 179 6
61 11 115 11 122 1 7 5 10 9 7 23 -14 35 105 51 494 1 34 6 62 9 62 4 0 5 9 2
20 -3 11 2 31 11 45 9 14 14 30 11 35 -3 5 0 7 8 4 8 -3 18 -1 22 5 3 6 -1 11
-9 11 -21 0 -20 16 2 25 16 7 16 8 -2 14 -16 6 -12 12 29 39 27 18 58 32 69
33 20 0 20 1 -2 9 -12 5 -30 7 -40 3 -9 -3 -3 7 15 25 33 31 107 59 178 66 22
3 52 9 66 14 29 11 122 7 182 -9 20 -5 41 -8 45 -5 9 6 84 -18 78 -25 -2 -2
10 -5 27 -6 17 -1 34 -7 37 -14 5 -7 9 -6 13 4 3 9 -3 22 -16 31 -21 15 -21
16 5 5 15 -7 29 -21 31 -33 4 -20 4 -20 6 1 1 19 6 22 31 19 26 -3 28 -1 19
16 -6 10 -8 24 -5 31 3 9 5 8 5 -1 1 -7 6 -10 13 -6 6 4 8 3 5 -3 -4 -6 0 -14
9 -17 25 -9 27 -7 13 11 -13 15 -12 15 9 4 18 -10 22 -9 22 3 0 8 5 16 11 18
6 2 1 15 -11 31 -24 30 -17 36 12 10 14 -13 18 -13 18 -2 0 27 -39 78 -72 95
-18 9 -36 21 -39 27 -4 5 -27 13 -50 18 -24 4 -57 11 -74 14 -25 5 -27 4 -12
-5 9 -6 17 -16 17 -21 0 -6 -6 -7 -12 -3 -24 15 -138 24 -138 12 0 -5 -9 -8
-20 -8 -11 0 -20 5 -20 11 0 15 -59 3 -74 -15 -6 -7 -34 -21 -63 -30 -62 -19
-66 -20 -57 -4 5 8 2 9 -10 5 -10 -4 -24 -7 -32 -7 -7 0 -28 -15 -45 -32 -20
-21 -33 -28 -36 -21 -8 22 -40 -4 -40 -31 0 -18 4 -23 16 -19 11 3 9 -1 -5
-14 -12 -10 -34 -40 -49 -68 -47 -87 -85 -119 -85 -72 0 23 17 172 25 217 13
76 48 188 65 210 11 14 25 35 32 48 6 12 15 22 20 22 4 0 8 4 8 10 0 5 9 20
20 32 10 13 19 27 19 31 0 5 8 16 18 25 15 14 44 64 47 82 1 3 4 10 7 15 4 6
9 23 13 39 4 17 15 37 24 45 9 9 17 27 17 41 -1 14 10 36 23 50 30 33 46 60
33 60 -5 0 -11 -8 -13 -17 -3 -15 -5 -14 -10 5 -5 19 -2 22 20 22 22 0 24 2
12 10 -13 9 -13 12 0 23 9 6 22 27 29 45 7 17 17 32 22 32 5 0 9 9 9 20 0 10
11 36 25 56 14 20 22 40 20 45 -7 11 109 126 123 121 7 -2 12 1 12 7 0 6 7 11
15 11 8 0 23 8 33 18 37 37 67 52 105 52 23 0 36 4 32 10 -3 6 -2 10 4 10 6 0
24 14 41 30 17 17 36 30 42 30 6 0 8 3 4 7 -3 4 8 12 26 18 27 9 38 8 60 -4
22 -12 32 -12 50 -3 27 15 88 23 88 12 0 -16 34 -20 50 -5 19 17 60 20 60 4 0
-7 10 -9 24 -7 14 3 31 1 38 -3 7 -5 21 -3 33 5 20 13 168 29 161 17 -3 -4 35
-7 83 -8 60 -1 98 -6 120 -17 21 -12 37 -14 48 -7 12 6 31 1 67 -18 27 -14 55
-31 62 -37 7 -6 26 -17 43 -24 17 -7 31 -18 31 -26 0 -7 8 -19 18 -26 10 -7
21 -21 25 -31 4 -11 16 -21 28 -24 16 -4 17 -8 7 -14 -10 -7 -8 -9 6 -9 21 0
58 -38 50 -52 -3 -4 -2 -8 3 -7 25 4 35 -1 24 -14 -13 -16 -5 -27 20 -27 10 0
19 -10 23 -25 4 -17 11 -23 19 -19 7 4 9 4 5 -1 -4 -4 -2 -17 4 -29 7 -11 11
-25 10 -29 -4 -14 32 -67 49 -72 20 -7 33 -47 17 -56 -6 -4 -2 -9 10 -13 13
-4 19 -13 15 -22 -3 -7 0 -14 6 -14 6 0 11 -6 11 -14 0 -8 9 -17 19 -21 13 -4
17 -12 14 -26 -4 -13 1 -25 13 -34 11 -7 16 -17 12 -20 -10 -10 20 -38 32 -30
5 3 10 -1 10 -9 0 -8 9 -18 20 -21 11 -4 18 -10 16 -14 -3 -3 11 -17 30 -30
19 -13 34 -31 34 -40 0 -10 14 -24 33 -32 62 -27 30 -45 -93 -49 -59 -2 -62
-3 -32 -11 17 -5 32 -12 32 -15 0 -10 -94 7 -133 23 -32 14 -45 15 -86 4 -26
-6 -54 -9 -63 -6 -11 4 -30 -7 -58 -35 -22 -22 -46 -38 -52 -34 -7 4 -2 14 13
27 l24 19 -27 -16 c-15 -9 -35 -16 -45 -16 -14 0 -15 -2 -4 -9 7 -5 10 -14 7
-20 -4 -6 -11 -9 -16 -6 -4 3 -6 -4 -3 -15 3 -11 -7 -39 -24 -67 -41 -66 -45
-88 -21 -110 16 -15 21 -15 28 -3 6 8 10 27 10 43 0 48 15 29 16 -22 1 -35 -3
-48 -11 -45 -8 4 -11 -3 -8 -18 3 -17 -4 -28 -26 -43 -16 -10 -28 -22 -25 -26
7 -12 -25 -31 -53 -31 -15 -1 -33 -7 -41 -14 -7 -8 -10 -14 -6 -14 4 0 -6 -11
-22 -25 -16 -14 -32 -25 -36 -25 -5 0 -8 -7 -8 -15 0 -9 -11 -28 -25 -43 -36
-38 -49 -90 -28 -110 14 -14 14 -16 -1 -22 -14 -5 -14 -7 3 -20 15 -10 18 -17
9 -27 -6 -7 -8 -16 -4 -20 3 -3 6 -1 6 5 0 7 11 12 24 12 22 0 23 -2 14 -28
-14 -36 -4 -78 22 -92 16 -8 18 -8 14 5 -3 8 -11 12 -18 9 -6 -3 -2 2 9 11 11
9 28 14 38 11 9 -2 15 0 11 5 -3 5 2 9 10 9 9 0 16 -4 16 -9 0 -5 9 -7 20 -4
11 3 20 10 20 15 0 5 18 27 40 48 22 21 40 43 40 49 0 6 3 10 8 9 4 -2 22 8
40 22 23 17 30 29 26 43 -4 14 -3 17 7 12 9 -6 11 -3 6 8 -4 10 -1 17 6 17 7
0 20 8 28 18 23 25 72 62 83 62 5 0 18 8 28 17 19 17 138 36 138 22 0 -4 18
-10 40 -14 59 -10 156 -62 180 -96 12 -16 17 -29 12 -29 -5 0 -12 -11 -14 -25
-3 -14 -2 -25 2 -25 4 0 7 -7 7 -15 0 -8 -4 -12 -9 -9 -4 3 -8 1 -8 -4 0 -6
-10 -8 -22 -5 -19 4 -20 3 -8 -6 9 -7 10 -11 3 -11 -6 0 -14 4 -17 8 -3 5 -31
5 -63 2 -32 -4 -68 -4 -79 1 -12 4 -24 6 -25 4 -2 -2 -40 -6 -84 -9 -44 -3
-102 -9 -130 -12 -51 -5 -125 -32 -125 -44 0 -7 -54 -34 -57 -28 -1 1 -13 -7
-26 -20 -26 -24 -30 -63 -9 -84 6 -6 50 -12 99 -15 48 -2 96 -5 106 -8 11 -2
17 1 14 8 -2 7 -29 13 -67 14 -45 1 -67 6 -79 19 -15 16 -15 16 2 10 18 -6 40
8 47 29 3 12 56 45 70 45 5 0 13 -19 16 -42 4 -24 17 -52 32 -67 14 -14 18
-21 8 -18 -9 4 -16 2 -16 -3 0 -13 27 -13 35 0 17 28 182 -7 194 -41 4 -12 2
-12 -12 0 -10 7 -17 9 -17 3 0 -5 -17 -13 -37 -17 l-38 -7 30 -13 c24 -11 26
-14 10 -14 -31 -2 3 -21 36 -21 15 0 29 -6 32 -14 4 -9 0 -15 -11 -14 -9 0
-28 -4 -41 -8 -19 -5 -22 -4 -16 6 6 10 4 11 -11 5 -30 -14 -96 -11 -134 7
-31 15 -100 37 -139 44 -8 2 -22 -2 -30 -7 -13 -8 -12 -9 6 -6 12 3 27 -1 34
-9 9 -11 8 -14 -2 -14 -8 0 10 -11 39 -25 30 -14 67 -34 83 -46 16 -11 29 -18
29 -15 0 3 17 -4 37 -15 31 -17 58 -22 146 -24 59 -1 110 2 113 7 3 5 13 7 22
4 10 -2 33 -8 52 -12 l35 -6 -20 22 -20 23 58 -6 c59 -6 59 -6 53 19 -5 20 -2
26 20 34 14 6 24 15 22 22 -2 6 4 20 14 30 10 10 18 24 18 31 0 7 16 19 35 27
19 8 35 18 35 22 0 5 4 7 10 3 5 -3 19 0 30 7 17 11 22 11 30 -2 8 -13 11 -13
22 -1 11 11 11 13 -1 6 -10 -5 -12 -4 -7 4 11 17 24 5 31 -29 6 -26 8 -28 21
-15 17 17 28 20 19 6 -3 -5 -1 -12 5 -16 13 -8 13 -45 0 -45 -5 0 -10 -15 -10
-32 0 -61 -6 -92 -17 -95 -8 -3 -6 -11 5 -24 22 -25 32 -24 33 4 1 17 2 18 6
4 2 -9 9 -15 14 -11 5 3 7 10 4 15 -4 5 -4 9 -2 9 3 0 14 -16 26 -36 23 -38
28 -74 10 -74 -8 0 -8 -4 -2 -12 19 -25 22 -48 7 -63 -9 -8 -11 -15 -6 -15 6
0 15 -13 21 -30 5 -16 6 -30 2 -30 -9 0 -8 -31 3 -48 4 -7 2 -12 -4 -12 -7 0
-9 -8 -5 -20 6 -19 -10 -30 -17 -10 -2 6 -9 6 -17 0 -12 -7 -11 -12 10 -29 20
-17 21 -20 7 -21 -11 0 -18 -8 -18 -19 0 -10 -7 -24 -15 -31 -8 -7 -12 -16 -9
-21 3 -5 -2 -12 -10 -15 -9 -3 -16 -12 -16 -20 0 -8 -10 -14 -22 -14 -17 0
-19 -3 -10 -9 8 -4 14 -12 15 -17 1 -5 8 -8 15 -7 7 0 11 -5 8 -12 -2 -7 1
-18 7 -24 6 -6 8 -14 4 -18 -4 -4 -13 -1 -19 5 -7 7 -19 12 -27 12 -11 0 -11
-4 3 -19 11 -12 14 -21 7 -26 -21 -12 -12 -45 12 -46 16 -1 18 -2 5 -6 -21 -5
-24 -23 -5 -23 7 0 13 -12 14 -27 1 -16 -1 -23 -3 -16 -3 7 -12 9 -20 6 -12
-4 -11 -8 7 -21 19 -13 20 -16 5 -24 -9 -5 -14 -13 -11 -19 8 -13 -9 -11 -22
2 -8 8 -11 4 -10 -14 2 -19 5 -23 14 -15 13 11 33 3 33 -13 0 -6 -4 -7 -10 -4
-5 3 -10 1 -10 -5 0 -6 -10 -8 -25 -4 -28 7 -32 -1 -11 -22 13 -12 11 -18 -13
-45 -20 -22 -27 -37 -23 -56 3 -18 1 -24 -6 -19 -8 5 -10 2 -6 -8 3 -9 14 -16
24 -16 22 0 44 -25 35 -40 -4 -6 -3 -10 2 -9 21 4 29 -3 31 -27 3 -39 -7 -47
-34 -29 -13 8 -24 11 -24 5 0 -5 6 -10 13 -10 6 -1 1 -10 -12 -20 -22 -19 -22
-20 -3 -20 29 0 33 -12 11 -34 -11 -11 -19 -14 -19 -8 0 7 -4 12 -10 12 -5 0
-9 -3 -9 -7 6 -38 -2 -41 -30 -14 -16 16 -34 30 -40 32 -5 2 -12 21 -14 42 -7
75 -42 69 -42 -8 0 -27 -4 -39 -12 -38 -7 2 -13 -4 -13 -13 0 -10 6 -14 14
-11 12 5 12 2 0 -21 -8 -15 -14 -58 -15 -97 0 -77 -18 -141 -38 -137 -7 1 -10
-2 -6 -8 10 -17 -5 -50 -23 -50 -10 0 -13 -3 -6 -8 6 -4 7 -17 3 -32 -5 -18
-7 -20 -8 -6 -1 15 -4 16 -16 6 -8 -6 -13 -17 -12 -23 1 -6 -6 -12 -15 -14
-17 -4 -18 7 -3 40 4 9 5 24 1 32 -4 10 1 15 16 15 12 0 18 3 15 6 -3 4 0 16
8 28 8 11 15 28 15 38 0 10 5 18 12 18 9 0 9 3 1 11 -7 7 -17 8 -28 1 -12 -6
-14 -11 -6 -16 17 -11 13 -26 -6 -19 -10 4 -14 2 -10 -4 9 -14 -16 -24 -32
-13 -9 5 -10 10 -2 14 18 12 12 36 -8 36 -27 0 -54 29 -48 51 6 21 -27 54 -42
44 -6 -3 -11 -1 -11 4 0 6 -5 11 -11 11 -6 0 -8 -8 -5 -17 3 -10 -10 -1 -29
20 -19 20 -42 37 -50 37 -8 0 -15 7 -15 15 0 9 -10 19 -23 24 -13 5 -29 17
-37 27 -18 20 -127 74 -152 74 -12 0 -18 8 -18 23 0 28 -9 41 -40 57 -23 13
-24 14 -5 21 18 7 18 8 2 8 -10 1 -25 8 -34 16 -13 14 -11 16 17 22 22 4 28 8
18 14 -11 7 -10 11 1 18 12 7 12 13 3 24 -7 7 -9 17 -5 21 10 10 12 157 2 181
-4 11 -8 15 -8 8 -1 -17 -66 -32 -133 -31 -56 1 -58 3 -70 34 -9 25 -16 31
-36 29 -13 -1 -28 -9 -33 -16 -5 -8 -9 -9 -9 -4 0 6 -13 -10 -30 -35 -51 -78
-63 -91 -100 -110 -20 -10 -49 -17 -63 -16 -15 2 -27 0 -27 -5 0 -9 -40 -24
-56 -21 -6 1 -17 -5 -24 -13 -7 -8 -21 -15 -30 -15 -10 0 -20 -4 -22 -9 -1 -5
-30 9 -62 30 -37 24 -71 39 -90 39 -52 -1 -110 -18 -123 -37 -7 -10 -17 -24
-23 -31 -6 -7 -8 -17 -4 -23 4 -6 1 -15 -6 -19 -9 -6 -5 -13 16 -26 15 -11 38
-29 50 -41 25 -25 67 -21 62 6 -6 28 29 56 67 52 20 -1 35 2 35 8 0 6 10 15
21 22 15 8 19 8 15 0 -4 -6 0 -18 8 -27 16 -16 13 -34 -5 -34 -6 0 -7 4 -4 10
4 6 -7 10 -25 10 -25 0 -33 -6 -44 -31 -9 -21 -15 -27 -19 -18 -3 10 -7 9 -12
-6 -5 -11 -13 -26 -19 -34 -6 -8 -21 -37 -34 -65 -13 -28 -21 -41 -18 -28 6
29 -7 28 -24 -3 -7 -14 -17 -25 -21 -25 -4 0 -19 -24 -34 -53 -14 -28 -45 -70
-68 -92 -23 -22 -53 -55 -65 -73 -13 -18 -28 -29 -34 -26 -7 5 -8 2 -4 -5 5
-8 0 -14 -13 -18 -11 -3 -25 -19 -31 -38 -11 -34 -50 -62 -70 -50 -9 6 -9 3
-1 -13 8 -14 8 -29 0 -51 -9 -25 -16 -31 -41 -31 -16 0 -27 -4 -23 -10 3 -5
-2 -21 -11 -35 -9 -14 -12 -25 -5 -25 5 0 8 -7 5 -15 -4 -8 -1 -15 5 -15 6 0
11 5 11 10 0 20 20 9 26 -14 5 -21 11 -24 47 -22 23 0 45 5 49 11 5 6 8 4 8
-4 0 -11 4 -10 19 3 11 10 25 15 30 11 6 -3 11 -1 11 5 0 7 6 10 12 8 7 -3 21
4 32 13 10 10 23 16 28 13 4 -3 8 0 8 6 0 8 11 9 33 5 24 -5 28 -4 17 4 -13 9
-12 11 5 12 71 4 99 10 106 21 7 10 9 10 9 -2 0 -13 2 -13 9 -1 6 9 31 15 68
17 32 2 90 5 129 8 39 2 76 1 84 -4 7 -4 27 -4 44 1 17 5 66 12 109 14 42 2
86 9 97 15 11 6 50 11 87 13 50 1 72 7 84 20 26 28 94 13 111 -23 11 -26 13
-27 25 -12 12 15 12 15 6 -3 -3 -11 -10 -25 -15 -32 -6 -7 -7 -17 -3 -23 6 -9
-8 -15 -28 -11 -5 1 -6 -3 -2 -8 10 -18 -118 -72 -204 -86 -18 -3 -46 -12 -62
-20 -15 -8 -37 -15 -48 -15 -11 0 -23 -5 -27 -11 -4 -8 -9 -7 -15 2 -5 8 -9 9
-9 3 0 -11 -41 -21 -129 -31 -24 -2 -55 -9 -68 -14 -16 -6 -31 -5 -44 1 -13 7
-19 7 -19 0 0 -5 6 -10 13 -10 8 0 8 -3 -2 -9 -9 -6 -22 -6 -34 0 -10 6 -23 8
-30 6 -7 -2 -23 1 -37 8 -14 7 -36 16 -50 19 -24 7 -23 6 4 -13 17 -11 33 -18
37 -15 4 2 9 -2 12 -10 3 -8 16 -16 29 -18 13 -2 22 -9 21 -15 -1 -6 17 -14
42 -17 24 -4 55 -16 69 -27 14 -11 30 -18 35 -15 4 3 5 -9 1 -27 -4 -20 -12
-31 -21 -29 -10 3 -11 0 -3 -8 12 -12 305 -17 324 -5 4 3 42 8 82 11 40 3 75
9 76 15 2 5 14 9 27 9 13 0 29 8 34 17 6 10 11 13 11 6 0 -22 26 -3 27 20 0
12 -1 16 -4 10 -7 -20 -26 -15 -19 5 4 11 -1 8 -15 -8 l-22 -25 8 24 c6 19 4
23 -9 18 -20 -8 -33 12 -15 23 7 5 17 6 21 4 4 -3 8 4 8 15 0 15 4 19 17 14
10 -4 14 -2 9 5 -3 6 3 16 14 22 11 6 20 19 20 29 0 10 8 21 18 25 20 6 50 25
70 43 7 7 19 13 26 13 7 0 18 11 24 25 6 14 16 25 21 25 5 0 16 6 23 14 37 36
110 58 123 36 3 -6 17 -10 31 -10 18 0 24 5 24 21 0 19 4 20 40 14 36 -6 39
-5 33 11 -6 16 -5 17 9 4 15 -14 15 -16 -6 -24 -16 -6 -23 -17 -23 -35 0 -16
-11 -38 -26 -53 -15 -15 -27 -32 -27 -38 0 -18 27 -11 43 12 13 19 16 20 16 6
1 -10 -3 -18 -9 -18 -5 0 -10 -7 -10 -15 0 -17 -46 -50 -69 -50 -11 0 -15 -7
-13 -22 2 -12 -2 -24 -8 -28 -6 -3 -10 3 -10 14 0 12 -4 21 -10 21 -5 0 -7 -7
-4 -15 4 -9 0 -15 -10 -15 -9 0 -16 -4 -16 -10 0 -5 4 -10 8 -10 4 0 6 -16 4
-35 -4 -35 -17 -46 -24 -23 -3 7 -7 2 -10 -10 -4 -12 -3 -20 0 -18 4 2 13 -2
20 -10 7 -8 9 -14 5 -14 -4 0 -1 -5 7 -10 12 -8 13 -11 1 -19 -11 -7 -11 -10
0 -15 11 -5 11 -7 2 -12 -18 -8 -16 -27 1 -21 8 3 16 -2 19 -14 4 -14 -3 -24
-24 -34 -26 -14 -32 -14 -61 1 l-33 17 19 -22 c11 -11 25 -21 33 -21 7 0 13
-4 13 -9 0 -5 10 -13 21 -16 16 -5 18 -9 9 -15 -7 -5 -20 -6 -28 -2 -10 3 -13
1 -8 -6 7 -12 -5 -16 -33 -12 -13 1 -13 -1 -2 -14 18 -21 -2 -21 -23 0 -24 23
-19 1 5 -27 l21 -24 -24 -6 c-22 -5 -60 5 -86 24 -9 7 -11 5 -6 -7 9 -23 -16
-52 -28 -34 -6 9 -8 4 -4 -14 4 -16 4 -28 2 -28 -3 0 -20 16 -39 35 -38 39
-65 48 -47 15 7 -13 7 -20 1 -20 -7 0 -7 -9 -1 -25 9 -24 8 -25 -15 -19 -19 5
-25 2 -25 -11 0 -15 -2 -16 -17 -4 -12 10 -15 11 -9 1 4 -7 2 -19 -4 -27 -7
-8 -9 -23 -6 -32 6 -15 5 -16 -5 -5 -7 6 -17 12 -22 12 -4 0 -5 -6 -2 -12 4
-7 1 -6 -7 2 -17 19 -48 22 -41 4 2 -7 12 -15 21 -18 10 -3 0 -3 -20 0 -23 3
-38 1 -38 -6 0 -5 -7 -10 -15 -10 -8 0 -15 -5 -15 -11 0 -5 -5 -7 -10 -4 -6 3
-13 -1 -16 -9 -5 -14 -8 -14 -21 0 -9 8 -18 12 -21 9 -4 -3 0 -10 7 -14 11 -7
11 -10 0 -17 -7 -4 -14 -3 -17 4 -2 7 -8 12 -13 12 -4 0 -6 -7 -2 -16 4 -12 2
-15 -8 -12 -8 3 -13 16 -12 32 2 23 0 26 -12 16 -12 -10 -15 -10 -15 2 0 8 -7
15 -15 15 -8 0 -15 -6 -15 -14 0 -7 7 -16 15 -19 8 -4 15 -10 15 -15 0 -4 -7
-5 -17 -2 -11 4 -14 3 -9 -5 7 -11 -24 -18 -64 -14 -8 1 -30 3 -47 5 -18 1
-33 5 -33 9 0 4 -7 5 -15 2 -8 -4 -15 -12 -15 -20 0 -8 -3 -14 -6 -14 -12 0
-49 24 -57 36 -4 8 -13 14 -18 14 -6 0 -8 -4 -5 -9 3 -5 -4 -11 -16 -14 -12
-4 -25 -1 -29 5 -4 7 -8 6 -11 -2 -2 -7 -22 -12 -48 -12 -25 0 -39 -2 -32 -5
35 -13 -4 -53 -47 -47 -26 4 -31 2 -31 -14 0 -40 36 -57 230 -108 30 -8 65
-19 76 -25 13 -7 60 -9 125 -6 452 24 556 55 718 217 50 50 100 108 111 128
10 21 36 48 57 62 64 42 443 410 443 431 0 4 13 30 28 56 16 27 32 61 36 77 4
15 15 40 25 55 10 14 54 79 97 145 52 78 92 127 116 142 20 13 40 30 45 37 4
8 22 22 40 31 18 9 37 24 42 35 6 10 23 32 40 50 16 17 48 63 70 102 22 38 57
91 78 117 54 66 72 103 79 159 4 26 14 57 24 68 9 11 43 67 76 125 32 57 64
114 71 125 7 11 17 31 23 45 6 14 20 43 30 66 11 22 23 68 26 102 4 34 13 67
20 73 8 6 14 20 14 30 0 10 4 21 10 24 6 3 10 34 10 67 0 43 5 67 16 80 15 16
17 50 16 281 0 249 -7 325 -32 362 -4 6 -10 34 -14 63 -4 30 -12 63 -18 75
-25 49 -28 58 -28 81 0 14 -4 28 -10 31 -5 3 -10 21 -10 40 0 19 -4 36 -9 40
-5 3 -15 30 -21 60 -6 30 -16 57 -21 60 -5 4 -9 14 -9 23 0 9 -24 52 -53 96
-61 93 -61 93 -110 174 -20 35 -37 68 -37 74 0 6 -11 26 -25 44 -14 18 -25 36
-25 40 0 4 -111 120 -248 258 -231 235 -402 423 -402 445 0 16 -131 130 -153
133 -12 2 -22 8 -22 13 -1 6 -13 36 -29 68 -26 55 -29 57 -65 57 -37 0 -39 2
-51 46 -8 27 -33 70 -62 105 -44 52 -54 59 -86 59 -24 0 -53 10 -82 30 -33 22
-57 30 -91 30 -38 0 -50 5 -79 35 -33 34 -36 35 -104 33 -58 -1 -78 3 -106 20
-19 12 -50 22 -68 22 -39 0 -77 19 -149 72 -29 21 -57 38 -63 38 -5 0 -10 4
-10 8 0 13 -109 85 -175 115 -33 16 -82 39 -110 51 -84 39 -119 53 -152 60
-18 4 -35 12 -38 17 -10 15 -250 8 -383 -11z m439 -297 c13 -15 12 -15 -8 -4
-24 12 -29 21 -14 21 5 0 15 -7 22 -17z m49 3 c0 -7 7 -19 15 -26 20 -16 19
-30 -1 -30 -10 0 -14 6 -11 14 3 8 -1 20 -9 26 -16 14 -19 30 -4 30 6 0 10 -6
10 -14z m-1087 -363 c-7 -2 -19 -2 -25 0 -7 3 -2 5 12 5 14 0 19 -2 13 -5z
m2655 -391 c6 -18 -15 -14 -22 4 -4 10 -1 14 6 12 6 -2 14 -10 16 -16z m46
-47 c15 -14 24 -25 20 -25 -4 0 1 -6 11 -14 18 -13 18 -14 -1 -19 -46 -15 -70
6 -73 66 -1 24 11 21 43 -8z m57 -112 c18 -32 18 -33 -1 -34 -11 -1 -26 -2
-32 -3 -8 -1 -13 13 -13 37 0 47 20 46 46 0z m29 -58 c7 -8 9 -15 5 -15 -4 0
-2 -6 4 -13 6 -8 8 -17 4 -20 -3 -4 1 -7 10 -7 10 0 17 -7 17 -15 0 -19 -10
-19 -40 2 -14 10 -31 18 -38 20 -21 3 -24 8 -16 37 7 29 34 35 54 11z m224
-147 c17 -16 9 -58 -10 -51 -8 3 -12 9 -9 13 3 4 -2 13 -10 20 -8 7 -15 16
-15 21 0 13 29 11 44 -3z m-37 -42 c-4 -9 3 -16 20 -21 23 -5 25 -9 18 -38 -4
-18 -7 -38 -8 -44 0 -7 -7 -13 -16 -14 -10 0 -6 -4 8 -10 35 -14 55 -4 41 20
-14 27 -13 41 4 35 11 -4 13 0 9 15 -3 13 0 23 10 27 23 8 41 -5 28 -20 -14
-17 -1 -29 16 -15 9 9 17 8 27 0 20 -17 8 -51 -18 -52 l-21 0 21 -9 c32 -13
37 -28 15 -40 -13 -7 -22 -7 -26 0 -3 5 1 10 10 10 9 0 13 5 10 11 -5 7 -13 5
-24 -5 -10 -9 -23 -16 -29 -16 -7 0 -12 -4 -12 -9 0 -5 -9 -11 -20 -14 -12 -3
-20 -14 -20 -27 0 -21 1 -20 34 5 28 21 39 24 53 16 16 -9 16 -10 -5 -11 -13
0 -21 -3 -19 -7 2 -5 -9 -19 -26 -33 -17 -14 -28 -19 -24 -12 13 20 -4 14 -24
-10 -11 -11 -19 -27 -19 -34 0 -7 -6 -14 -12 -17 -7 -2 -10 -8 -6 -12 4 -4 14
-2 22 4 8 7 25 11 38 9 18 -2 24 -10 26 -36 2 -19 0 -41 -4 -50 -4 -10 -8 -23
-10 -30 -4 -22 -26 -42 -45 -42 -12 0 -16 5 -13 15 4 8 15 15 25 15 10 0 19 5
19 10 0 6 -4 10 -9 10 -14 0 -8 49 7 55 26 10 10 25 -28 25 -22 0 -40 -4 -40
-10 0 -5 -11 -10 -25 -10 -25 0 -33 18 -15 36 5 5 10 27 11 49 1 22 6 48 11
57 5 10 4 19 -3 23 -6 4 -8 13 -5 21 3 8 1 14 -4 14 -5 0 -7 7 -3 16 4 12 8
12 13 4 10 -16 22 36 22 98 0 26 3 50 5 55 7 13 15 7 10 -7z m-97 -12 c0 -11
-5 -14 -16 -10 -9 3 -20 6 -25 6 -6 0 -7 5 -4 10 10 16 45 12 45 -6z m310
-168 c0 -16 2 -18 9 -7 8 12 14 13 35 3 14 -6 26 -16 26 -22 0 -16 -42 -60
-52 -54 -4 3 -8 0 -8 -5 0 -6 -7 -11 -16 -11 -12 0 -14 -7 -9 -29 6 -26 4 -29
-14 -24 -22 6 -28 27 -11 38 7 4 7 13 0 26 -9 15 -7 21 5 25 19 8 20 24 0 24
-22 0 -18 18 5 25 23 7 26 25 8 45 -11 12 -10 12 5 1 9 -7 17 -23 17 -35z
m-90 -91 c5 3 17 0 25 -9 18 -18 9 -24 -39 -30 -39 -5 -59 11 -32 26 9 5 13
14 9 21 -4 7 -1 7 10 -1 9 -8 21 -11 27 -7z m228 -47 c2 -9 -5 -18 -15 -21
-17 -4 -17 -5 0 -6 10 0 20 6 23 14 4 8 10 12 15 9 14 -9 -9 -42 -41 -59 -27
-14 -30 -14 -39 3 -7 10 -11 12 -11 4 0 -9 -7 -11 -20 -7 -12 4 -20 2 -20 -6
0 -9 -4 -8 -15 1 -13 11 -8 17 30 42 25 16 48 34 51 39 9 15 38 6 42 -13z
m-328 -86 c0 -18 -42 -46 -53 -36 -6 6 34 51 46 53 4 1 7 -7 7 -17z m206 -37
c-4 -24 -13 -27 -19 -5 -3 13 0 20 8 20 7 0 12 -7 11 -15z m184 -5 c0 -5 -2
-10 -4 -10 -3 0 -8 5 -11 10 -3 6 -1 10 4 10 6 0 11 -4 11 -10z m-57 -15 c-3
-9 -8 -14 -10 -11 -3 3 -2 9 2 15 9 16 15 13 8 -4z m101 -10 c6 -17 4 -18 -18
-9 -20 8 -21 24 -2 24 8 0 16 -7 20 -15z m-230 -11 c21 -8 2 -34 -25 -34 -21
0 -22 1 -13 24 7 17 14 19 38 10z m196 -13 c0 -6 -4 -13 -10 -16 -5 -3 -10 1
-10 9 0 9 5 16 10 16 6 0 10 -4 10 -9z m-325 -26 c0 -5 -14 -11 -31 -13 -23
-2 -31 1 -31 13 0 12 8 15 31 13 17 -2 31 -7 31 -13z m-1055 -11 c0 -2 -9 -4
-20 -4 -11 0 -20 4 -20 9 0 5 9 7 20 4 11 -3 20 -7 20 -9z m1155 -3 c7 -12
-12 -24 -25 -16 -11 7 -4 25 10 25 5 0 11 -4 15 -9z m135 -6 c0 -8 -4 -15 -10
-15 -5 0 -10 7 -10 15 0 8 5 15 10 15 6 0 10 -7 10 -15z m-306 -4 c3 -5 0 -14
-8 -20 -10 -9 -15 -8 -19 3 -9 22 15 37 27 17z m-34 -37 c0 -2 -9 -4 -21 -4
-11 0 -18 4 -14 10 5 8 35 3 35 -6z m-3603 -10 c-3 -3 -12 -4 -19 -1 -8 3 -5
6 6 6 11 1 17 -2 13 -5z m3790 0 c-3 -3 -12 -4 -19 -1 -8 3 -5 6 6 6 11 1 17
-2 13 -5z m218 -34 c3 -5 2 -10 -4 -10 -5 0 -13 5 -16 10 -3 6 -2 10 4 10 5 0
13 -4 16 -10z m125 0 c0 -5 -12 -17 -27 -27 -16 -10 -30 -20 -33 -24 -3 -3
-22 -12 -42 -18 -21 -7 -40 -16 -43 -21 -3 -5 -19 -4 -37 2 l-31 11 24 18 c13
10 40 22 59 25 19 4 40 14 46 22 8 11 20 13 43 9 20 -4 30 -3 26 3 -3 6 -1 10
4 10 6 0 11 -4 11 -10z m-400 -14 c0 -2 -9 -6 -20 -9 -11 -3 -18 -1 -14 4 5 9
34 13 34 5z m27 -81 c-4 -8 -2 -17 3 -20 26 -16 2 -22 -63 -16 -18 2 5 21 25
21 17 0 18 2 8 15 -10 13 -9 15 10 15 15 0 20 -4 17 -15z m393 -32 c-1 -35
-87 -70 -160 -64 l-25 2 29 15 c15 9 37 14 47 11 10 -3 23 1 30 9 6 8 22 14
35 14 13 0 24 5 24 10 0 6 5 10 10 10 6 0 10 -3 10 -7z m-325 -24 c11 -17 -1
-21 -15 -4 -8 9 -8 15 -2 15 6 0 14 -5 17 -11z m-80 -9 c3 -5 1 -10 -4 -10 -6
0 -11 5 -11 10 0 6 2 10 4 10 3 0 8 -4 11 -10z m432 -25 c-9 -8 -22 -15 -31
-15 -8 0 -19 -7 -23 -15 -5 -9 -17 -12 -30 -9 -29 8 -18 32 13 28 13 -1 27 3
31 10 12 19 47 36 51 25 2 -5 -3 -16 -11 -24z m-1244 2 c18 -1 26 -6 22 -16
-4 -9 0 -11 12 -5 29 12 116 18 109 6 -3 -6 -15 -8 -25 -5 -11 3 -28 0 -38 -6
-16 -10 -14 -11 12 -9 24 2 29 -1 27 -14 -2 -11 4 -18 15 -19 13 -1 10 -3 -7
-9 -16 -5 -19 -8 -8 -9 9 -1 40 -6 68 -12 l52 -11 -28 -15 c-41 -21 -43 -26
-6 -21 33 5 44 -8 16 -19 -8 -3 -13 -12 -9 -21 4 -11 2 -12 -7 -5 -9 8 -19 5
-33 -10 l-20 -20 28 7 c15 3 27 2 27 -3 0 -14 -43 -22 -51 -9 -4 6 -15 8 -25
4 -17 -5 -17 -4 1 10 20 16 20 16 -1 11 -12 -2 -28 -1 -35 4 -7 4 -19 3 -25
-2 -8 -7 -17 -4 -28 7 -9 9 -23 13 -31 10 -8 -3 -15 -1 -15 4 0 6 -5 9 -12 8
-7 -2 -17 7 -23 20 -12 26 -27 30 -19 5 5 -16 4 -16 -10 1 -8 10 -20 15 -27
10 -7 -4 -10 -3 -5 4 3 6 -3 16 -14 22 -13 7 -20 7 -20 0 0 -5 -4 -10 -8 -10
-5 0 -8 14 -7 30 1 19 -4 35 -14 41 -14 9 -14 10 2 5 13 -4 17 -1 15 12 -2 9
3 16 10 15 6 -2 17 -4 23 -5 6 -2 14 3 17 11 3 9 0 11 -8 6 -9 -5 -11 -4 -6 3
5 8 21 10 44 6 20 -3 49 -6 65 -7z m827 -13 c0 -15 -23 -44 -34 -44 -3 0 -6 7
-6 15 0 8 5 15 10 15 6 0 10 7 10 15 0 8 5 15 10 15 6 0 10 -7 10 -16z m50
-33 c0 -12 -20 -25 -27 -18 -7 7 6 27 18 27 5 0 9 -4 9 -9z m390 -37 c0 -8 -4
-12 -10 -9 -5 3 -10 10 -10 16 0 5 5 9 10 9 6 0 10 -7 10 -16z m-537 -11 c-7
-2 -19 -2 -25 0 -7 3 -2 5 12 5 14 0 19 -2 13 -5z m577 -28 c10 -12 10 -15 -4
-15 -9 0 -16 7 -16 15 0 8 2 15 4 15 2 0 9 -7 16 -15z m-52 -7 c17 -17 15 -38
-3 -38 -16 0 -38 34 -28 44 9 9 18 7 31 -6z m-258 -8 c0 -5 -5 -10 -11 -10 -5
0 -7 5 -4 10 3 6 8 10 11 10 2 0 4 -4 4 -10z m190 -27 c0 -22 -2 -25 -10 -13
-13 20 -13 40 0 40 6 0 10 -12 10 -27z m-200 -3 c0 -12 -40 -53 -46 -47 -9 8
19 57 33 57 7 0 13 -4 13 -10z m-3966 -36 c9 -23 8 -24 -16 -24 -17 0 -19 3
-9 9 7 5 10 14 7 20 -4 6 -3 11 2 11 6 0 13 -7 16 -16z m4196 2 c0 -3 -4 -8
-10 -11 -5 -3 -10 -1 -10 4 0 6 5 11 10 11 6 0 10 -2 10 -4z m-370 -22 c0 -10
-33 -33 -47 -34 -9 0 -7 7 5 19 17 19 42 27 42 15z m494 -44 c30 -11 35 -31 7
-23 -13 3 -23 -2 -30 -15 -10 -19 -20 -20 -116 -18 -57 1 -108 5 -111 9 -4 4
6 11 22 17 24 9 31 8 41 -6 12 -16 13 -16 13 -1 0 9 3 17 8 18 36 4 111 1 126
-6 15 -7 17 -5 11 13 -7 25 -6 26 29 12z m-4379 -30 c3 -5 1 -10 -4 -10 -6 0
-11 5 -11 10 0 6 2 10 4 10 3 0 8 -4 11 -10z m3878 -49 c20 -23 23 -31 11 -35
-8 -3 -14 1 -14 10 0 8 -6 17 -14 20 -16 6 -30 34 -17 34 4 0 19 -13 34 -29z
m88 -16 c-1 -5 -10 -11 -21 -11 -20 -1 -26 7 -13 20 10 9 34 3 34 -9z m404
-55 c-3 -5 -15 -10 -26 -10 -11 0 -17 5 -14 10 3 6 15 10 26 10 11 0 17 -4 14
-10z m-92 -7 c-7 -2 -19 -2 -25 0 -7 3 -2 5 12 5 14 0 19 -2 13 -5z m62 -33
c-3 -5 -11 -10 -16 -10 -6 0 -7 5 -4 10 3 6 11 10 16 10 6 0 7 -4 4 -10z m65
6 c0 -3 -4 -8 -10 -11 -5 -3 -10 -1 -10 4 0 6 5 11 10 11 6 0 10 -2 10 -4z
m-117 -13 c-7 -2 -19 -2 -25 0 -7 3 -2 5 12 5 14 0 19 -2 13 -5z m-316 -9 c-3
-3 -12 -4 -19 -1 -8 3 -5 6 6 6 11 1 17 -2 13 -5z m-26 -44 c-30 -26 -49 -26
-26 0 10 11 25 20 34 20 12 -1 10 -5 -8 -20z m-1191 1 c0 -13 -37 -24 -50 -16
-6 4 -8 11 -5 16 8 12 55 12 55 0z m1660 -90 c0 -10 -7 -22 -16 -25 -22 -8
-23 -6 -13 22 10 27 29 29 29 3z m-377 -7 c3 -3 -8 -18 -24 -31 -37 -31 -47
-25 -18 10 21 27 31 32 42 21z m-3927 -70 c-3 -9 -6 -20 -6 -25 0 -5 -4 -9 -9
-9 -5 0 -8 11 -7 25 0 14 7 25 15 25 8 0 11 -6 7 -16z m3853 -5 c-16 -10 -23
-4 -14 10 3 6 11 8 17 5 6 -4 5 -9 -3 -15z m-54 -9 c-3 -5 -12 -10 -18 -10 -7
0 -6 4 3 10 19 12 23 12 15 0z m345 -10 c0 -5 -2 -10 -4 -10 -3 0 -8 5 -11 10
-3 6 -1 10 4 10 6 0 11 -4 11 -10z m93 -30 c12 0 28 -4 35 -9 21 -13 -34 -24
-58 -11 -10 5 -28 10 -39 10 -25 0 -27 15 -4 28 11 7 21 5 31 -4 7 -8 23 -14
35 -14z m-1333 6 c0 -2 -7 -7 -16 -10 -8 -3 -12 -2 -9 4 6 10 25 14 25 6z
m-50 -16 c0 -5 -5 -10 -11 -10 -5 0 -7 5 -4 10 3 6 8 10 11 10 2 0 4 -4 4 -10z
m-80 -4 c0 -3 -4 -8 -10 -11 -5 -3 -10 -1 -10 4 0 6 5 11 10 11 6 0 10 -2 10
-4z m50 -10 c0 -11 -19 -15 -25 -6 -3 5 1 10 9 10 9 0 16 -2 16 -4z m1494 -11
c-6 -16 -34 -21 -34 -7 0 13 11 22 26 22 8 0 11 -6 8 -15z m-471 -8 c3 -8 -1
-14 -9 -14 -7 0 -15 6 -18 14 -3 7 1 13 8 13 8 0 16 -6 19 -13z m27 -48 c0 -5
-4 -9 -10 -9 -5 0 -10 7 -10 16 0 8 5 12 10 9 6 -3 10 -10 10 -16z m-60 -19
c0 -5 -5 -10 -11 -10 -5 0 -7 5 -4 10 3 6 8 10 11 10 2 0 4 -4 4 -10z m435
-30 c3 -5 1 -10 -4 -10 -6 0 -11 5 -11 10 0 6 2 10 4 10 3 0 8 -4 11 -10z
m-65 -24 c0 -11 -19 -15 -25 -6 -3 5 1 10 9 10 9 0 16 -2 16 -4z m-270 -36 c0
-5 -2 -10 -4 -10 -3 0 -8 5 -11 10 -3 6 -1 10 4 10 6 0 11 -4 11 -10z m305
-120 c-12 -13 -22 -17 -28 -11 -13 13 1 31 25 31 21 0 21 -1 3 -20z m-4170
-20 c-3 -5 -10 -10 -16 -10 -5 0 -9 5 -9 10 0 6 7 10 16 10 8 0 12 -4 9 -10z
m23 -49 c-6 -17 -6 -27 1 -29 21 -7 11 -32 -11 -32 -19 0 -20 2 -8 10 13 8 13
11 1 19 -11 7 -11 15 -1 46 8 25 15 33 20 25 5 -8 4 -25 -2 -39z m4202 39 c0
-5 -4 -10 -10 -10 -5 0 -10 5 -10 10 0 6 5 10 10 10 6 0 10 -4 10 -10z m-4145
-19 c3 -5 1 -12 -5 -16 -5 -3 -10 1 -10 9 0 18 6 21 15 7z m3785 -5 c0 -3 -4
-8 -10 -11 -5 -3 -10 -1 -10 4 0 6 5 11 10 11 6 0 10 -2 10 -4z m230 -80 c0
-3 -4 -8 -10 -11 -5 -3 -10 -1 -10 4 0 6 5 11 10 11 6 0 10 -2 10 -4z m-3985
-95 c-3 -6 -11 -11 -16 -11 -5 0 -4 6 3 14 14 16 24 13 13 -3z m40 -131 c-3
-5 -14 -10 -23 -10 -15 0 -15 2 -2 10 20 13 33 13 25 0z m3135 -114 c0 -3 -4
-8 -10 -11 -5 -3 -10 -1 -10 4 0 6 5 11 10 11 6 0 10 -2 10 -4z m-3110 -136
c0 -5 -4 -10 -9 -10 -6 0 -13 5 -16 10 -3 6 1 10 9 10 9 0 16 -4 16 -10z
m3150 -84 c0 -26 -6 -18 -14 19 -5 22 -4 26 4 15 5 -8 10 -24 10 -34z m-3065
-46 c-3 -5 -10 -10 -16 -10 -5 0 -9 5 -9 10 0 6 7 10 16 10 8 0 12 -4 9 -10z
m3009 -62 c-3 -5 -10 -6 -15 -3 -5 4 -9 1 -9 -4 0 -6 9 -11 19 -11 23 0 35
-15 25 -31 -5 -8 -8 -8 -14 0 -4 7 -15 13 -26 13 -14 1 -19 9 -19 29 0 17 4
25 13 22 6 -3 12 1 12 8 0 11 2 11 9 -1 6 -8 7 -18 5 -22z m-2997 -70 c-3 -8
-6 -5 -6 6 -1 11 2 17 5 13 3 -3 4 -12 1 -19z m-4 -74 c-16 -11 -18 -10 -21
13 -5 33 20 50 31 21 5 -15 2 -24 -10 -34z m77 31 c0 -8 -7 -15 -16 -15 -14 0
-14 3 -4 15 7 8 14 15 16 15 2 0 4 -7 4 -15z m2087 -10 c9 -25 -2 -27 -22 -5
-17 18 -17 20 -1 20 9 0 19 -7 23 -15z m-2130 -107 c-3 -8 -6 -5 -6 6 -1 11 2
17 5 13 3 -3 4 -12 1 -19z m2829 -32 c19 -20 18 -26 -5 -26 -14 0 -19 6 -18
20 2 24 4 24 23 6z m141 -2 c-3 -3 -12 -4 -19 -1 -8 3 -5 6 6 6 11 1 17 -2 13
-5z m-1790 -56 c-3 -8 -6 -5 -6 6 -1 11 2 17 5 13 3 -3 4 -12 1 -19z m1656 8
c4 -10 1 -13 -9 -9 -15 6 -19 23 -5 23 5 0 11 -7 14 -14z m74 -2 c-3 -3 -12
-4 -19 -1 -8 3 -5 6 6 6 11 1 17 -2 13 -5z m-43 -20 c3 -8 2 -12 -4 -9 -6 3
-10 10 -10 16 0 14 7 11 14 -7z m-1744 -66 c0 -16 -3 -19 -11 -11 -6 6 -8 16
-5 22 11 17 16 13 16 -11z m650 -40 l30 -22 -31 -14 c-20 -10 -32 -25 -36 -44
-4 -23 -8 -26 -20 -17 -7 7 -11 14 -8 17 2 3 -3 11 -13 19 -11 9 -13 16 -6 19
6 3 9 15 7 29 -4 18 0 24 18 28 13 2 25 5 27 6 2 0 16 -9 32 -21z m45 12 c3
-5 2 -10 -4 -10 -5 0 -13 5 -16 10 -3 6 -2 10 4 10 5 0 13 -4 16 -10z m-748
-22 c-3 -8 -6 -5 -6 6 -1 11 2 17 5 13 3 -3 4 -12 1 -19z m580 -30 c-3 -8 -6
-5 -6 6 -1 11 2 17 5 13 3 -3 4 -12 1 -19z m453 -138 c0 -5 -2 -10 -4 -10 -3
0 -8 5 -11 10 -3 6 -1 10 4 10 6 0 11 -4 11 -10z m480 -94 c0 -2 -7 -6 -15
-10 -8 -3 -15 -1 -15 4 0 6 7 10 15 10 8 0 15 -2 15 -4z m-176 -485 c4 -5 -3
-7 -14 -4 -23 6 -26 13 -6 13 8 0 17 -4 20 -9z m-274 -171 c0 -5 -2 -10 -4
-10 -3 0 -8 5 -11 10 -3 6 -1 10 4 10 6 0 11 -4 11 -10z m-745 -260 c3 -5 1
-10 -4 -10 -6 0 -11 5 -11 10 0 6 2 10 4 10 3 0 8 -4 11 -10z"/>
<path d="M4819 4397 c12 -15 11 -17 -7 -17 -12 0 -24 -5 -28 -12 -4 -7 -3 -8
5 -4 6 4 18 2 26 -4 11 -9 18 -9 29 3 16 16 12 22 -24 42 -13 8 -13 7 -1 -8z"/>
<path d="M5425 3440 c3 -5 8 -10 11 -10 2 0 4 5 4 10 0 6 -5 10 -11 10 -5 0
-7 -4 -4 -10z"/>
<path d="M1265 4749 c-4 -6 -5 -12 -2 -15 2 -3 7 2 10 11 7 17 1 20 -8 4z"/>
<path d="M1135 4539 c-4 -6 -5 -12 -2 -15 2 -3 7 2 10 11 7 17 1 20 -8 4z"/>
<path d="M1091 4419 c-6 -18 -9 -34 -7 -36 2 -2 9 10 15 28 6 18 9 34 7 36 -2
2 -9 -10 -15 -28z"/>
<path d="M1210 4285 c7 -8 16 -12 21 -9 13 8 1 24 -18 24 -13 0 -13 -3 -3 -15z"/>
<path d="M1067 3983 c-4 -3 -7 -15 -7 -27 0 -19 0 -19 20 2 11 12 20 24 20 27
0 7 -25 6 -33 -2z"/>
<path d="M3530 3913 c0 -9 -7 -24 -16 -34 -9 -10 -11 -19 -5 -23 5 -3 17 8 25
25 19 37 20 49 6 49 -5 0 -10 -8 -10 -17z"/>
<path d="M3414 3866 c-3 -21 -4 -39 -1 -42 3 -4 9 10 13 30 3 21 4 39 1 42 -3
4 -9 -10 -13 -30z"/>
<path d="M3446 3871 c-4 -7 -5 -15 -2 -18 9 -9 19 4 14 18 -4 11 -6 11 -12 0z"/>
<path d="M2430 3805 c0 -2 10 -10 23 -16 20 -11 21 -11 8 4 -13 16 -31 23 -31
12z"/>
<path d="M2517 3790 c3 -11 9 -17 15 -14 5 3 4 12 -3 20 -16 19 -18 18 -12 -6z"/>
<path d="M891 3774 c0 -11 3 -14 6 -6 3 7 2 16 -1 19 -3 4 -6 -2 -5 -13z"/>
<path d="M2540 3753 c5 -2 10 -11 10 -18 0 -8 4 -17 10 -20 6 -4 7 2 1 16 -4
13 -13 24 -20 25 -6 1 -7 0 -1 -3z"/>
<path d="M1005 3740 c3 -5 8 -10 11 -10 2 0 4 5 4 10 0 6 -5 10 -11 10 -5 0
-7 -4 -4 -10z"/>
<path d="M2485 3710 c3 -5 8 -10 11 -10 2 0 4 5 4 10 0 6 -5 10 -11 10 -5 0
-7 -4 -4 -10z"/>
<path d="M2500 3683 c0 -4 5 -15 10 -23 8 -13 10 -13 10 2 0 9 -4 20 -10 23
-5 3 -10 3 -10 -2z"/>
<path d="M1025 3650 c4 -6 11 -8 16 -5 14 9 11 15 -7 15 -8 0 -12 -5 -9 -10z"/>
<path d="M841 3604 c0 -11 3 -14 6 -6 3 7 2 16 -1 19 -3 4 -6 -2 -5 -13z"/>
<path d="M1050 3579 c0 -11 5 -17 10 -14 6 3 10 13 10 21 0 8 -4 14 -10 14 -5
0 -10 -9 -10 -21z"/>
<path d="M1785 3560 c-3 -5 -1 -10 4 -10 6 0 11 5 11 10 0 6 -2 10 -4 10 -3 0
-8 -4 -11 -10z"/>
<path d="M1740 3539 c0 -6 -9 -8 -22 -3 -20 6 -21 5 -10 -9 8 -9 20 -13 27
-11 16 7 28 34 15 34 -6 0 -10 -5 -10 -11z"/>
<path d="M2253 3525 c0 -13 3 -22 8 -20 4 3 11 0 15 -6 4 -8 3 -9 -4 -5 -7 4
-12 2 -12 -4 0 -7 -13 -9 -35 -6 -35 6 -36 5 -39 -34 -1 -8 -7 -16 -14 -16 -6
-1 -19 -2 -27 -3 -24 -2 -18 -28 8 -35 13 -3 36 -2 52 3 21 5 33 4 40 -6 6 -7
19 -14 31 -16 12 -1 33 -10 47 -20 15 -9 32 -17 39 -17 7 0 21 -7 31 -14 14
-11 15 -15 5 -19 -9 -4 -8 -6 3 -6 9 -1 28 -12 42 -25 26 -24 21 -46 -11 -46
-8 0 -21 -9 -30 -20 -10 -11 -26 -21 -37 -23 -11 -1 -26 -6 -34 -11 -7 -5 -31
-9 -52 -9 -21 0 -36 -4 -33 -8 3 -5 -4 -9 -15 -9 -19 0 -49 -10 -99 -33 -12
-6 -38 -11 -57 -11 -26 -1 -34 -5 -30 -16 6 -18 -87 -70 -124 -70 -15 0 -21
-5 -18 -13 3 -8 1 -20 -4 -28 -5 -9 -9 -10 -9 -2 0 9 -7 8 -26 -1 -14 -8 -35
-11 -47 -8 -12 3 -16 7 -9 10 6 2 12 14 12 27 0 13 5 25 10 27 6 2 12 13 14
24 7 38 76 165 109 201 18 20 50 49 72 66 l40 30 -40 -6 c-22 -4 -45 -13 -51
-22 -6 -8 -16 -15 -23 -15 -6 0 -11 -4 -11 -10 0 -5 -7 -10 -15 -10 -8 0 -15
-4 -15 -10 0 -5 -7 -10 -15 -10 -8 0 -15 -4 -15 -10 0 -5 -7 -10 -15 -10 -8 0
-15 -7 -15 -15 0 -8 -4 -15 -10 -15 -5 0 -10 -6 -10 -14 0 -8 -9 -18 -20 -21
-11 -3 -20 -14 -20 -22 0 -9 -8 -25 -17 -36 -10 -11 -12 -17 -5 -13 6 4 12 3
12 -3 0 -5 -5 -11 -10 -13 -6 -2 -12 -13 -13 -26 0 -12 -5 -22 -9 -22 -4 0 -8
-5 -8 -11 0 -5 6 -7 13 -3 8 5 8 2 -2 -9 -7 -9 -10 -17 -6 -17 4 0 1 -7 -6
-16 -11 -13 -10 -17 5 -26 13 -8 15 -13 5 -24 -6 -8 -19 -14 -28 -14 -13 0
-13 -2 -2 -9 10 -6 10 -13 2 -29 -10 -18 -8 -21 17 -26 15 -3 41 -7 59 -8 27
-2 30 -5 22 -20 -8 -15 -6 -18 15 -18 14 0 27 4 30 9 3 5 17 11 31 14 19 3 25
1 21 -9 -7 -19 10 -27 34 -14 15 8 20 8 20 -1 0 -7 12 -9 36 -5 22 5 41 3 50
-5 8 -6 17 -9 21 -6 3 4 11 3 17 -1 6 -5 25 -5 41 -1 17 4 22 7 11 8 -18 1
-18 2 -1 21 19 21 21 19 -29 34 -7 3 -19 -1 -26 -7 -10 -9 -12 -8 -7 5 4 11 0
18 -11 20 -9 3 8 5 38 5 74 1 125 12 185 38 28 12 75 26 105 29 30 4 59 11 65
16 5 4 21 10 35 12 14 2 24 9 23 16 -3 12 8 15 79 27 42 7 60 30 51 66 -8 29
-22 44 -49 53 -23 7 -73 56 -58 56 5 0 26 -5 47 -11 45 -12 68 0 60 32 -4 13
-1 18 8 14 8 -3 21 -1 29 5 12 7 12 12 3 21 -10 10 -9 15 2 23 12 9 7 14 -25
28 -22 9 -38 12 -35 7 4 -5 1 -9 -4 -9 -6 0 -10 15 -10 33 1 17 3 24 6 15 3
-11 14 -18 27 -18 12 0 28 -6 35 -12 11 -11 13 -10 7 5 -3 10 -6 21 -6 23 0 2
-9 4 -20 4 -11 0 -20 5 -20 10 0 15 -27 12 -42 -4 -11 -11 -15 -11 -26 3 -12
14 -13 14 -8 -2 4 -12 2 -17 -6 -14 -7 2 -12 12 -11 21 0 11 -4 15 -13 12 -8
-3 -14 1 -14 11 0 9 -3 14 -6 10 -11 -10 -63 15 -69 34 -4 10 -9 18 -13 18 -4
-1 -11 0 -17 1 -5 1 -14 3 -20 4 -50 11 -76 20 -80 26 -3 5 5 6 17 3 l23 -6
-24 22 c-13 11 -32 21 -43 21 -10 0 -18 5 -18 10 0 6 -6 10 -14 10 -8 0 -13
-10 -13 -25z m247 -279 c0 -3 -4 -8 -10 -11 -5 -3 -10 -1 -10 4 0 6 5 11 10
11 6 0 10 -2 10 -4z m-50 -166 c0 -5 -4 -10 -10 -10 -5 0 -10 5 -10 10 0 6 5
10 10 10 6 0 10 -4 10 -10z m45 -12 c31 -27 31 -36 1 -44 -14 -3 -27 -12 -30
-20 -3 -8 -13 -14 -22 -14 -13 0 -15 6 -10 33 3 17 13 37 21 43 8 6 12 14 8
17 -16 17 10 5 32 -15z m-379 -131 c25 -37 16 -51 -14 -21 -10 11 -17 13 -20
5 -5 -15 -37 -14 -51 3 -13 15 -4 49 10 40 5 -3 9 0 9 5 0 23 42 3 66 -32z
m-296 -47 c0 -5 -2 -10 -4 -10 -3 0 -8 5 -11 10 -3 6 -1 10 4 10 6 0 11 -4 11
-10z m235 -50 c-3 -5 -12 -10 -18 -10 -7 0 -6 4 3 10 19 12 23 12 15 0z"/>
<path d="M1020 3530 c0 -5 5 -10 10 -10 6 0 10 5 10 10 0 6 -4 10 -10 10 -5 0
-10 -4 -10 -10z"/>
<path d="M2350 3525 c7 -8 20 -15 29 -15 13 1 13 3 -3 15 -26 19 -42 19 -26 0z"/>
<path d="M831 3444 c0 -11 3 -14 6 -6 3 7 2 16 -1 19 -3 4 -6 -2 -5 -13z"/>
<path d="M2665 3380 c-3 -5 -1 -10 4 -10 6 0 11 5 11 10 0 6 -2 10 -4 10 -3 0
-8 -4 -11 -10z"/>
<path d="M2060 3370 c0 -5 5 -10 10 -10 6 0 10 5 10 10 0 6 -4 10 -10 10 -5 0
-10 -4 -10 -10z"/>
<path d="M845 3290 c3 -5 10 -10 16 -10 5 0 9 5 9 10 0 6 -7 10 -16 10 -8 0
-12 -4 -9 -10z"/>
<path d="M1048 3263 c7 -3 16 -2 19 1 4 3 -2 6 -13 5 -11 0 -14 -3 -6 -6z"/>
<path d="M857 3210 c-3 -11 -1 -23 4 -26 5 -3 9 6 9 20 0 31 -6 34 -13 6z"/>
<path d="M3830 3040 c0 -5 5 -10 11 -10 5 0 7 5 4 10 -3 6 -8 10 -11 10 -2 0
-4 -4 -4 -10z"/>
<path d="M822 3000 c0 -19 2 -27 5 -17 2 9 2 25 0 35 -3 9 -5 1 -5 -18z"/>
<path d="M1718 2943 c7 -3 16 -2 19 1 4 3 -2 6 -13 5 -11 0 -14 -3 -6 -6z"/>
<path d="M2514 2939 c-3 -6 -17 -9 -30 -6 -18 3 -24 0 -24 -14 0 -18 -20 -25
-59 -20 -7 2 -10 -2 -7 -7 5 -9 -11 -14 -89 -28 -16 -3 -37 -8 -45 -11 -8 -4
-20 -5 -27 -4 -6 1 -14 -3 -18 -9 -3 -5 -17 -7 -31 -4 -27 7 -28 5 -15 -30 8
-20 15 -24 41 -21 17 2 35 7 40 10 6 3 10 1 10 -4 0 -6 -7 -11 -15 -11 -8 0
-15 -4 -15 -10 0 -5 7 -10 15 -10 8 0 15 -4 15 -9 0 -5 -8 -7 -18 -5 -9 3 -26
-3 -37 -13 -26 -23 -52 -27 -73 -11 -12 10 -14 10 -8 0 5 -8 -1 -15 -16 -21
l-23 -9 28 -7 c15 -4 27 -13 27 -20 0 -13 85 -4 135 15 15 6 35 10 47 10 27 0
85 27 133 64 49 36 169 159 173 176 4 17 -47 4 -70 -17 -16 -15 -18 -15 -18 0
0 10 5 17 10 17 6 0 10 5 10 10 0 14 -37 13 -46 -1z m-214 -153 c0 -2 -7 -6
-15 -10 -8 -3 -15 -1 -15 4 0 6 7 10 15 10 8 0 15 -2 15 -4z"/>
<path d="M832 2890 c0 -19 2 -27 5 -17 2 9 2 25 0 35 -3 9 -5 1 -5 -18z"/>
<path d="M2167 2866 c-4 -10 -1 -13 9 -9 7 3 14 9 14 14 0 14 -17 10 -23 -5z"/>
<path d="M840 2814 c0 -21 4 -45 9 -53 5 -8 7 5 4 35 -7 61 -13 70 -13 18z"/>
<path d="M1048 2843 c6 -2 18 -2 25 0 6 3 1 5 -13 5 -14 0 -19 -2 -12 -5z"/>
<path d="M860 2837 c0 -2 6 -10 14 -16 11 -9 16 -9 22 1 4 7 4 10 -1 6 -4 -4
-14 -3 -22 3 -7 6 -13 9 -13 6z"/>
<path d="M2025 2730 c-4 -6 11 -10 37 -9 33 0 38 2 23 9 -28 12 -53 12 -60 0z"/>
<path d="M896 2696 c9 -23 33 -28 27 -5 -3 10 -11 19 -19 19 -7 0 -11 -6 -8
-14z"/>
<path d="M1170 2486 c0 -9 5 -16 10 -16 6 0 10 4 10 9 0 6 -4 13 -10 16 -5 3
-10 -1 -10 -9z"/>
<path d="M853 2440 c0 -30 2 -43 4 -27 2 15 2 39 0 55 -2 15 -4 2 -4 -28z"/>
<path d="M1150 2416 c0 -2 7 -7 16 -10 8 -3 12 -2 9 4 -6 10 -25 14 -25 6z"/>
<path d="M1198 2403 c7 -3 16 -2 19 1 4 3 -2 6 -13 5 -11 0 -14 -3 -6 -6z"/>
<path d="M957 2384 c-20 -20 24 -140 55 -150 10 -3 18 -12 18 -20 0 -8 7 -14
15 -14 8 0 15 5 15 10 0 6 -4 10 -10 10 -5 0 -10 11 -10 25 0 15 -6 25 -14 25
-21 0 -40 26 -25 35 8 6 7 10 -5 17 -13 7 -14 13 -6 23 8 9 7 17 -5 29 -18 18
-19 18 -28 10z"/>
<path d="M4400 2349 c0 -5 5 -7 10 -4 6 3 10 8 10 11 0 2 -4 4 -10 4 -5 0 -10
-5 -10 -11z"/>
<path d="M871 2315 c1 -11 5 -33 9 -50 l8 -30 1 35 c0 19 -4 42 -9 50 -8 12
-10 11 -9 -5z"/>
<path d="M1220 2310 c0 -5 7 -10 15 -10 8 0 15 5 15 10 0 6 -7 10 -15 10 -8 0
-15 -4 -15 -10z"/>
<path d="M4450 2312 c0 -5 7 -9 15 -9 8 0 15 4 15 9 0 4 -7 8 -15 8 -8 0 -15
-4 -15 -8z"/>
<path d="M4386 2297 c3 -10 9 -15 12 -12 3 3 0 11 -7 18 -10 9 -11 8 -5 -6z"/>
<path d="M4458 2263 c9 -4 10 -9 2 -18 -8 -9 -6 -14 7 -17 13 -4 18 1 18 17 0
14 -6 21 -20 22 -11 1 -14 -1 -7 -4z"/>
<path d="M4495 2240 c3 -5 10 -10 16 -10 5 0 9 5 9 10 0 6 -7 10 -16 10 -8 0
-12 -4 -9 -10z"/>
<path d="M893 2160 c0 -41 2 -58 4 -37 2 20 2 54 0 75 -2 20 -4 3 -4 -38z"/>
<path d="M4450 2200 c0 -5 5 -10 10 -10 6 0 10 5 10 10 0 6 -4 10 -10 10 -5 0
-10 -4 -10 -10z"/>
<path d="M4360 2191 c0 -5 7 -11 15 -15 8 -3 15 -1 15 3 0 5 -7 11 -15 15 -8
3 -15 1 -15 -3z"/>
<path d="M4295 2161 c-3 -5 -1 -12 5 -16 5 -3 10 1 10 9 0 18 -6 21 -15 7z"/>
<path d="M4464 2158 c-7 -10 15 -9 41 2 17 7 16 8 -8 7 -16 -1 -31 -5 -33 -9z"/>
<path d="M892 2045 c0 -16 2 -22 5 -12 2 9 2 23 0 30 -3 6 -5 -1 -5 -18z"/>
<path d="M1065 2020 c3 -5 8 -10 11 -10 2 0 4 5 4 10 0 6 -5 10 -11 10 -5 0
-7 -4 -4 -10z"/>
<path d="M4346 1994 c-5 -14 -4 -15 9 -4 17 14 19 20 6 20 -5 0 -12 -7 -15
-16z"/>
<path d="M950 1980 c0 -5 11 -9 25 -8 14 1 25 6 25 10 0 4 -11 8 -25 8 -14 0
-25 -4 -25 -10z"/>
<path d="M910 1955 c0 -5 5 -17 10 -25 5 -8 10 -10 10 -5 0 6 -5 17 -10 25 -5
8 -10 11 -10 5z"/>
<path d="M1070 1950 c-21 -6 -22 -8 -8 -15 10 -4 15 -11 12 -16 -3 -5 0 -8 6
-7 7 2 17 -6 23 -17 7 -11 16 -23 21 -26 5 -4 6 -12 2 -17 -7 -12 121 -79 131
-68 4 3 1 6 -5 6 -7 0 -10 14 -8 36 3 37 -10 56 -20 30 -9 -24 -40 -19 -58 8
-14 23 -14 26 1 42 16 16 16 16 -3 10 -15 -4 -28 1 -45 17 -18 18 -30 22 -49
17z"/>
<path d="M4310 1920 c0 -5 5 -10 11 -10 5 0 7 5 4 10 -3 6 -8 10 -11 10 -2 0
-4 -4 -4 -10z"/>
<path d="M4351 1930 c-7 -15 -5 -68 2 -61 5 5 7 21 4 37 -2 16 -5 27 -6 24z"/>
<path d="M930 1902 c0 -7 4 -20 9 -30 5 -9 14 -29 19 -44 8 -20 16 -25 31 -21
12 3 21 10 21 16 0 6 9 1 20 -11 26 -27 25 -48 0 -55 -13 -3 -26 2 -36 16 -13
18 -15 18 -10 4 3 -10 9 -36 12 -58 6 -38 24 -65 24 -36 0 33 49 27 50 -6 0
-16 90 19 90 35 0 5 -10 6 -21 3 -15 -5 -19 -4 -15 4 4 7 -6 23 -23 38 -17 15
-31 34 -31 43 0 9 -7 26 -16 38 -8 12 -12 27 -9 32 8 13 -45 13 -65 0 -10 -6
-19 -2 -32 18 -10 15 -18 21 -18 14z m75 -52 c3 -5 -1 -10 -10 -10 -9 0 -13 5
-10 10 3 6 8 10 10 10 2 0 7 -4 10 -10z"/>
<path d="M1400 1820 c0 -5 5 -10 10 -10 6 0 10 5 10 10 0 6 -4 10 -10 10 -5 0
-10 -4 -10 -10z"/>
<path d="M1430 1796 c0 -9 7 -16 16 -16 17 0 14 22 -4 28 -7 2 -12 -3 -12 -12z"/>
<path d="M4380 1790 c0 -5 5 -10 10 -10 6 0 10 5 10 10 0 6 -4 10 -10 10 -5 0
-10 -4 -10 -10z"/>
<path d="M1431 1744 c0 -11 3 -14 6 -6 3 7 2 16 -1 19 -3 4 -6 -2 -5 -13z"/>
<path d="M2795 1750 c3 -5 8 -10 11 -10 2 0 4 5 4 10 0 6 -5 10 -11 10 -5 0
-7 -4 -4 -10z"/>
<path d="M2820 1750 c0 -5 5 -10 11 -10 5 0 7 5 4 10 -3 6 -8 10 -11 10 -2 0
-4 -4 -4 -10z"/>
<path d="M1176 1671 c-4 -6 -15 -11 -25 -11 -10 0 -26 -9 -36 -20 -10 -11 -24
-20 -32 -20 -7 0 -13 -7 -13 -16 0 -9 5 -12 13 -8 7 4 9 3 4 -2 -13 -14 -31
-11 -44 6 -16 19 -16 8 -1 -25 7 -16 17 -24 27 -21 56 16 79 16 91 1 10 -13 9
-15 -8 -15 -12 0 -24 -4 -27 -10 -3 -5 1 -10 9 -10 11 0 18 -13 22 -40 4 -22
10 -40 15 -40 5 0 9 -9 9 -21 0 -14 5 -19 18 -17 20 4 56 -47 45 -65 -4 -8 -9
-3 -13 13 -4 15 -15 26 -30 30 -16 3 -32 19 -43 43 -10 20 -23 37 -28 37 -6 0
-7 5 -4 10 3 6 -1 10 -9 10 -9 0 -23 14 -31 31 -9 17 -19 29 -21 26 -11 -10
21 -58 96 -142 44 -49 80 -95 80 -100 0 -6 38 -48 83 -93 77 -76 115 -104 203
-146 17 -8 37 -22 44 -31 8 -10 23 -14 42 -11 15 2 28 0 28 -6 0 -6 -8 -7 -17
-4 -30 11 29 -32 72 -53 71 -33 125 -51 155 -51 16 0 31 -4 35 -9 3 -6 27 -13
53 -17 33 -4 57 -15 80 -37 25 -25 32 -27 32 -13 0 9 -4 15 -9 12 -12 -8 -120
114 -170 191 -49 75 -73 101 -105 109 -14 3 -32 16 -40 29 -9 13 -31 39 -49
57 -19 18 -38 43 -41 56 -4 12 -13 22 -21 22 -7 0 -34 25 -60 55 -26 30 -51
52 -56 49 -5 -3 -9 1 -9 9 0 8 -9 17 -20 20 -11 3 -18 1 -14 -4 3 -5 0 -9 -5
-9 -6 0 -11 6 -11 14 0 7 -16 24 -35 37 -19 13 -37 31 -40 39 -3 9 -24 23 -47
31 -23 9 -44 21 -46 27 -2 8 3 10 15 5 16 -6 17 -5 3 13 -8 10 -16 21 -17 23
-1 2 -9 -2 -18 -9 -12 -10 -15 -10 -15 3 0 23 -56 82 -64 68z m21 -155 c-7
-15 -16 -21 -21 -16 -6 6 -4 15 4 25 19 23 29 18 17 -9z m58 -96 c3 -5 1 -10
-4 -10 -6 0 -11 5 -11 10 0 6 2 10 4 10 3 0 8 -4 11 -10z m87 -121 c-23 -22
-42 -45 -42 -51 0 -6 -11 -1 -25 12 -14 13 -25 33 -25 44 0 15 3 17 12 8 17
-17 36 -15 68 8 15 11 30 17 34 13 3 -3 6 0 6 7 0 7 3 10 7 6 4 -3 -12 -24
-35 -47z m36 -110 c-2 -6 -8 -10 -13 -10 -5 0 -11 4 -13 10 -2 6 4 11 13 11 9
0 15 -5 13 -11z"/>
<path d="M1315 1570 c3 -5 8 -10 11 -10 2 0 4 5 4 10 0 6 -5 10 -11 10 -5 0
-7 -4 -4 -10z"/>
<path d="M1360 1553 c0 -16 16 -28 40 -30 23 -3 23 -2 8 11 -10 7 -15 16 -11
19 3 4 -3 7 -15 7 -12 0 -22 -3 -22 -7z"/>
<path d="M4028 1553 c7 -3 16 -2 19 1 4 3 -2 6 -13 5 -11 0 -14 -3 -6 -6z"/>
<path d="M1530 1490 c0 -5 7 -10 15 -10 8 0 15 5 15 10 0 6 -7 10 -15 10 -8 0
-15 -4 -15 -10z"/>
<path d="M2385 1240 c-3 -5 -2 -10 4 -10 5 0 13 5 16 10 3 6 2 10 -4 10 -5 0
-13 -4 -16 -10z"/>
<path d="M4060 1200 c0 -6 7 -10 15 -10 8 0 15 2 15 4 0 2 -7 6 -15 10 -8 3
-15 1 -15 -4z"/>
<path d="M4035 1130 c3 -5 8 -10 11 -10 2 0 4 5 4 10 0 6 -5 10 -11 10 -5 0
-7 -4 -4 -10z"/>
<path d="M4030 1055 c7 -8 17 -12 22 -9 6 4 5 10 -3 15 -22 14 -33 10 -19 -6z"/>
<path d="M3920 959 c0 -5 5 -7 10 -4 6 3 10 8 10 11 0 2 -4 4 -10 4 -5 0 -10
-5 -10 -11z"/>
<path d="M3675 910 c3 -5 12 -7 20 -3 21 7 19 13 -6 13 -11 0 -18 -4 -14 -10z"/>
<path d="M3915 770 c4 -6 11 -8 16 -5 14 9 11 15 -7 15 -8 0 -12 -5 -9 -10z"/>
<path d="M2388 615 c-3 -6 2 -21 13 -34 14 -18 19 -19 19 -7 0 9 -4 16 -9 16
-5 0 -11 8 -13 18 -2 9 -6 12 -10 7z"/>
<path d="M3465 420 c3 -5 8 -10 11 -10 2 0 4 5 4 10 0 6 -5 10 -11 10 -5 0 -7
-4 -4 -10z"/>
<path d="M3148 343 c7 -3 16 -2 19 1 4 3 -2 6 -13 5 -11 0 -14 -3 -6 -6z"/>
<path d="M2708 303 c6 -2 10 -9 6 -14 -3 -5 0 -9 7 -9 7 0 21 -7 31 -17 10 -9
21 -13 26 -8 4 4 2 10 -5 12 -6 2 -21 13 -34 24 -12 10 -27 19 -33 18 -6 0 -6
-3 2 -6z"/>
<path d="M2780 300 c-8 -5 -11 -12 -8 -16 4 -3 14 1 23 10 18 17 9 21 -15 6z"/>
</g>
</svg>
